<svg width="128" height="128" viewBox="0 0 128 128" xmlns="http://www.w3.org/2000/svg">
  <defs>
    <linearGradient id="py-logo-gradient" x1="0%" y1="0%" x2="100%" y2="100%">
      <stop offset="0%" stop-color="#306998" />
      <stop offset="100%" stop-color="#FFD43B" />
    </linearGradient>
  </defs>
  <path fill="url(#py-logo-gradient)" d="M63.38 8.87C48.77 8.87 35.88 15.11 35.88 28.32v9.75h29.04v4.34H34.25C18.06 42.41 4.93 54.02 4.93 70.36c0 12.85 10.41 22.15 23.59 22.94V82.59c0-12.23 9.83-22.06 22.07-22.06h32.76c6.12 0 11.03-4.91 11.03-11.03V28.32c0-13.21-14.38-19.45-31-19.45zM48.06 19.34c2.75 0 5 2.25 5 5s-2.25 5-5 5-5-2.25-5-5 2.25-5 5-5z"/>
  <path fill="url(#py-logo-gradient)" d="M98.63 34.69v10.72c0 12.23-9.83 22.06-22.07 22.06H43.81c-6.12 0-11.03 4.91-11.03 11.03v21.18c0 13.21 14.37 19.45 30.99 19.45 14.61 0 27.5-6.24 27.5-19.45V89.93h-29.04v-4.34h30.67c16.19 0 29.32-11.61 29.32-27.95 0-12.85-10.41-22.15-23.59-22.95zM80 98.66c2.75 0 5 2.25 5 5s-2.25 5-5 5-5-2.25-5-5 2.25-5 5-5z"/>
</svg>